<svg width="24" height="25" viewBox="0 0 24 25" fill="none" xmlns="http://www.w3.org/2000/svg">
<path d="M12 4.81145C14.403 4.81145 14.688 4.82045 15.637 4.86345C16.514 4.90345 16.991 5.05045 17.308 5.17345C17.728 5.33645 18.028 5.53145 18.343 5.84645C18.658 6.16145 18.853 6.46145 19.016 6.88145C19.139 7.19845 19.286 7.67545 19.326 8.55245C19.369 9.50145 19.378 9.78645 19.378 12.1895C19.378 14.5925 19.369 14.8775 19.326 15.8265C19.286 16.7035 19.139 17.1805 19.016 17.4975C18.853 17.9175 18.658 18.2175 18.343 18.5325C18.028 18.8475 17.728 19.0425 17.308 19.2055C16.991 19.3285 16.514 19.4755 15.637 19.5155C14.688 19.5585 14.404 19.5675 12 19.5675C9.596 19.5675 9.312 19.5585 8.363 19.5155C7.486 19.4755 7.009 19.3285 6.692 19.2055C6.272 19.0425 5.972 18.8475 5.657 18.5325C5.342 18.2175 5.147 17.9175 4.984 17.4975C4.861 17.1805 4.714 16.7035 4.674 15.8265C4.631 14.8775 4.622 14.5925 4.622 12.1895C4.622 9.78645 4.631 9.50145 4.674 8.55245C4.714 7.67545 4.861 7.19845 4.984 6.88145C5.147 6.46145 5.342 6.16145 5.657 5.84645C5.972 5.53145 6.272 5.33645 6.692 5.17345C7.009 5.05045 7.486 4.90345 8.363 4.86345C9.312 4.82045 9.597 4.81145 12 4.81145ZM12 3.18945C9.556 3.18945 9.249 3.19945 8.289 3.24345C7.331 3.28745 6.677 3.43945 6.105 3.66145C5.513 3.89145 5.011 4.19945 4.511 4.70045C4.011 5.20045 3.703 5.70245 3.473 6.29445C3.25 6.86645 3.098 7.52045 3.054 8.47845C3.01 9.43845 3 9.74545 3 12.1895C3 14.6335 3.01 14.9405 3.054 15.9005C3.098 16.8585 3.25 17.5125 3.472 18.0855C3.702 18.6775 4.01 19.1795 4.51 19.6795C5.01 20.1795 5.512 20.4875 6.104 20.7175C6.676 20.9395 7.331 21.0925 8.289 21.1355C9.249 21.1795 9.556 21.1895 12 21.1895C14.444 21.1895 14.751 21.1795 15.711 21.1355C16.669 21.0915 17.323 20.9395 17.896 20.7175C18.488 20.4875 18.99 20.1795 19.49 19.6795C19.99 19.1795 20.298 18.6775 20.528 18.0855C20.75 17.5135 20.903 16.8585 20.946 15.9005C20.99 14.9405 21 14.6335 21 12.1895C21 9.74545 20.99 9.43845 20.946 8.47845C20.902 7.52045 20.75 6.86645 20.528 6.29345C20.298 5.70145 19.99 5.19945 19.49 4.69945C18.99 4.19945 18.488 3.89145 17.896 3.66145C17.324 3.43945 16.669 3.28645 15.711 3.24345C14.751 3.19945 14.444 3.18945 12 3.18945ZM12 7.56745C9.448 7.56745 7.378 9.63645 7.378 12.1895C7.378 14.7425 9.448 16.8115 12 16.8115C14.552 16.8115 16.622 14.7425 16.622 12.1895C16.622 9.63645 14.552 7.56745 12 7.56745ZM12 15.1895C10.343 15.1895 9 13.8465 9 12.1895C9 10.5325 10.343 9.18945 12 9.18945C13.657 9.18945 15 10.5325 15 12.1895C15 13.8465 13.657 15.1895 12 15.1895ZM16.804 6.30545C16.208 6.30545 15.724 6.78945 15.724 7.38545C15.724 7.98145 16.208 8.46545 16.804 8.46545C17.4 8.46545 17.884 7.98145 17.884 7.38545C17.884 6.78945 17.401 6.30545 16.804 6.30545Z" fill="black"/>
</svg>
