<svg width="26" height="26" viewBox="0 0 26 26" fill="none" xmlns="http://www.w3.org/2000/svg">
<g clip-path="url(#clip0_15_64)">
<path d="M21.3189 15.3533C20.7661 14.7777 20.0994 14.47 19.3928 14.47C18.6918 14.47 18.0194 14.772 17.4439 15.3476L15.6431 17.1426C15.495 17.0628 15.3468 16.9887 15.2043 16.9147C14.9992 16.8121 14.8054 16.7152 14.6402 16.6126C12.9534 15.5413 11.4205 14.1452 9.9503 12.3387C9.23798 11.4384 8.7593 10.6805 8.41169 9.91115C8.87897 9.48376 9.31206 9.03928 9.73375 8.61189C9.89331 8.45233 10.0529 8.28707 10.2124 8.12751C11.4091 6.93082 11.4091 5.38082 10.2124 4.18413L8.65673 2.62843C8.48007 2.45177 8.29772 2.26942 8.12677 2.08707C7.78485 1.73376 7.42585 1.36905 7.05544 1.02714C6.50268 0.480078 5.84165 0.189453 5.14643 0.189453C4.45121 0.189453 3.77878 0.480078 3.20893 1.02714L3.19753 1.03853L1.26003 2.99313C0.530618 3.72254 0.114625 4.61152 0.0234486 5.64295C-0.113316 7.30692 0.376758 8.85692 0.752861 9.87126C1.67602 12.3615 3.05507 14.6694 5.11224 17.1426C7.6082 20.1229 10.6113 22.4764 14.0418 24.1347C15.3525 24.7558 17.102 25.4909 19.0566 25.6163C19.1762 25.622 19.3016 25.6277 19.4156 25.6277C20.7319 25.6277 21.8374 25.1547 22.7036 24.2145C22.7093 24.2031 22.7207 24.1974 22.7264 24.186C23.0227 23.827 23.3646 23.5022 23.7237 23.1545C23.9687 22.9209 24.2194 22.6759 24.4645 22.4194C25.0286 21.8325 25.3249 21.1487 25.3249 20.4477C25.3249 19.7411 25.0229 19.063 24.4474 18.4931L21.3189 15.3533ZM23.3589 21.3538C23.3533 21.3538 23.3533 21.3595 23.3589 21.3538C23.1367 21.5931 22.9088 21.8097 22.6637 22.049C22.2933 22.4023 21.9172 22.7727 21.5639 23.1887C20.9884 23.8042 20.3102 24.0948 19.4213 24.0948C19.3358 24.0948 19.2446 24.0948 19.1591 24.0891C17.4667 23.9808 15.8939 23.3198 14.7143 22.7557C11.4889 21.1943 8.65673 18.9775 6.30323 16.1681C4.36003 13.826 3.06077 11.6606 2.20029 9.3356C1.67033 7.91667 1.47658 6.81115 1.56205 5.76832C1.61904 5.10159 1.87547 4.54883 2.34845 4.07585L4.29165 2.13265C4.57088 1.87052 4.8672 1.72806 5.15783 1.72806C5.51684 1.72806 5.80746 1.9446 5.98981 2.12696L6.00691 2.14405C6.35452 2.46887 6.68504 2.80508 7.03265 3.16409C7.2093 3.34644 7.39165 3.52879 7.57401 3.71685L9.12971 5.27255C9.73375 5.87659 9.73375 6.43505 9.12971 7.03909C8.96445 7.20435 8.80489 7.36961 8.63963 7.52917C8.16096 8.01924 7.70507 8.47512 7.2093 8.91961C7.1979 8.93101 7.18651 8.9367 7.18081 8.9481C6.69073 9.43818 6.78191 9.91685 6.88448 10.2417L6.90158 10.293C7.30618 11.2731 7.87603 12.1963 8.74221 13.2961L8.74791 13.3018C10.3207 15.2393 11.979 16.7494 13.8082 17.9062C14.0418 18.0544 14.2812 18.174 14.5091 18.288C14.7143 18.3906 14.908 18.4874 15.0733 18.59C15.0961 18.6014 15.1189 18.6185 15.1417 18.6299C15.3354 18.7268 15.5178 18.7724 15.7058 18.7724C16.1788 18.7724 16.4751 18.4761 16.572 18.3792L18.5209 16.4303C18.7146 16.2365 19.0224 16.0029 19.3814 16.0029C19.7347 16.0029 20.0253 16.2251 20.202 16.4189L20.2134 16.4303L23.3533 19.5702C23.9402 20.1514 23.9402 20.7498 23.3589 21.3538Z" fill="#6F6C8F"/>
</g>
<defs>
<clipPath id="clip0_15_64">
<rect width="25.3249" height="25.4383" fill="white" transform="translate(0 0.189453)"/>
</clipPath>
</defs>
</svg>
