<svg width="24" height="25" viewBox="0 0 24 25" fill="none" xmlns="http://www.w3.org/2000/svg">
<path d="M12.0117 2.18945C6.50572 2.18945 2.02348 6.66783 2.02148 12.1738C2.02048 13.9338 2.48147 15.652 3.35547 17.166L2 22.1895L7.23242 20.9531C8.69142 21.7491 10.3339 22.167 12.0059 22.168H12.0098C17.5148 22.168 21.995 17.6886 21.998 12.1836C22 9.51459 20.9622 7.00519 19.0762 5.11719C17.1902 3.23019 14.6837 2.19045 12.0117 2.18945ZM12.0098 4.18945C14.1458 4.19045 16.1531 5.02325 17.6621 6.53125C19.1711 8.04125 20 10.0476 19.998 12.1816C19.996 16.5856 16.4138 20.168 12.0078 20.168C10.6748 20.167 9.35441 19.8323 8.19141 19.1973L7.51758 18.8301L6.77344 19.0059L4.80469 19.4707L5.28516 17.6855L5.50195 16.8848L5.08789 16.166C4.38989 14.958 4.02048 13.5768 4.02148 12.1738C4.02348 7.77183 7.60677 4.18945 12.0098 4.18945ZM8.47656 7.56445C8.30956 7.56445 8.03955 7.62695 7.81055 7.87695C7.58155 8.12595 6.93555 8.72903 6.93555 9.95703C6.93555 11.185 7.83008 12.3721 7.95508 12.5391C8.07908 12.7051 9.68175 15.3047 12.2188 16.3047C14.3267 17.1357 14.7549 16.9717 15.2129 16.9297C15.6709 16.8887 16.6904 16.3271 16.8984 15.7441C17.1064 15.1611 17.1069 14.6596 17.0449 14.5566C16.9829 14.4526 16.8164 14.3906 16.5664 14.2656C16.3174 14.1406 15.0903 13.5381 14.8613 13.4551C14.6323 13.3721 14.4648 13.3301 14.2988 13.5801C14.1328 13.8301 13.6558 14.3906 13.5098 14.5566C13.3638 14.7236 13.2188 14.7461 12.9688 14.6211C12.7188 14.4951 11.9149 14.2309 10.9609 13.3809C10.2189 12.7199 9.71827 11.9043 9.57227 11.6543C9.42727 11.4053 9.55859 11.2685 9.68359 11.1445C9.79559 11.0325 9.93164 10.853 10.0566 10.707C10.1806 10.561 10.2236 10.457 10.3066 10.291C10.3896 10.125 10.3472 9.97852 10.2852 9.85352C10.2232 9.72852 9.73763 8.49595 9.51562 8.00195C9.32863 7.58695 9.13112 7.57731 8.95312 7.57031C8.80813 7.56431 8.64256 7.56445 8.47656 7.56445Z" fill="black"/>
</svg>
