<svg width="25" height="26" viewBox="0 0 25 26" fill="none" xmlns="http://www.w3.org/2000/svg">
<g clip-path="url(#clip0_15_96)">
<path d="M12.5 0.189453C7.65371 0.189453 3.71094 4.13223 3.71094 8.97852C3.71094 10.6159 4.1645 12.2139 5.0229 13.6002L11.9997 24.8432C12.0654 24.9491 12.1571 25.0365 12.2659 25.0971C12.3748 25.1576 12.4974 25.1894 12.622 25.1895H12.6278C12.7534 25.1885 12.8767 25.1552 12.9857 25.0929C13.0947 25.0305 13.1859 24.9412 13.2504 24.8334L20.0494 13.4814C20.8604 12.1244 21.2891 10.5673 21.2891 8.97852C21.2891 4.13223 17.3463 0.189453 12.5 0.189453ZM18.7923 12.7294L12.6109 23.0501L6.26792 12.8284C5.55342 11.6745 5.16602 10.3433 5.16602 8.97852C5.16602 4.93994 8.46143 1.64453 12.5 1.64453C16.5386 1.64453 19.8291 4.93994 19.8291 8.97852C19.8291 10.3028 19.4672 11.6 18.7923 12.7294Z" fill="#6F6C8F"/>
<path d="M12.5 4.58398C10.0769 4.58398 8.10547 6.55537 8.10547 8.97852C8.10547 11.3862 10.0448 13.373 12.5 13.373C14.9855 13.373 16.8945 11.3597 16.8945 8.97852C16.8945 6.55537 14.9231 4.58398 12.5 4.58398ZM12.5 11.918C10.8761 11.918 9.56055 10.598 9.56055 8.97852C9.56055 7.36309 10.8846 6.03906 12.5 6.03906C14.1154 6.03906 15.4346 7.36309 15.4346 8.97852C15.4346 10.5744 14.1496 11.918 12.5 11.918Z" fill="#6F6C8F"/>
</g>
<defs>
<clipPath id="clip0_15_96">
<rect width="25" height="25" fill="white" transform="translate(0 0.189453)"/>
</clipPath>
</defs>
</svg>
