<svg width="35" height="40" viewBox="0 0 35 40" fill="none" xmlns="http://www.w3.org/2000/svg">
<g clip-path="url(#clip0_30_37)">
<path d="M0.000976562 18.6395C0.000976562 8.3448 8.37349 -0.000728607 18.7015 -0.000728607H22.6303V21.359C22.6303 31.6537 14.2578 39.9993 3.92976 39.9993H0.000976562V18.6395Z" fill="#E34747"/>
<path d="M8.44922 23.7587C8.44922 15.7858 14.9334 9.32258 22.932 9.32258H31.0785C31.0785 17.2954 24.5944 23.7587 16.5958 23.7587H8.44922Z" fill="#4A3AFF"/>
<path d="M6.33716 29.473C6.33716 23.6594 11.0652 18.9466 16.8975 18.9466V22.8564C16.8975 28.6699 12.1695 33.3827 6.33716 33.3827V29.473Z" fill="#4A3AFF"/>
<path d="M0.000976562 35.7887C0.000976562 29.8091 4.86411 24.9617 10.863 24.9617V29.1722C10.863 35.1518 5.99995 39.9993 0.000976562 39.9993V35.7887Z" fill="#4A3AFF"/>
<path d="M0.000976562 39.9993C0.000976562 30.3653 7.836 22.5557 17.501 22.5557H22.6303C22.6303 32.1896 14.7953 39.9993 5.13029 39.9993H0.000976562Z" fill="#4CBFFF"/>
<path d="M24.4407 31.1271C24.4407 28.2203 26.8047 25.8639 29.7208 25.8639C32.637 25.8639 35.001 28.2203 35.001 31.1271V31.4278C35.001 34.3346 32.637 36.691 29.7208 36.691C26.8047 36.691 24.4407 34.3346 24.4407 31.4278V31.1271Z" fill="#3E31CF"/>
<path d="M27.9105 30.9767C28.6604 30.9767 29.2683 30.3708 29.2683 29.6233C29.2683 28.8759 28.6604 28.27 27.9105 28.27C27.1606 28.27 26.5527 28.8759 26.5527 29.6233C26.5527 30.3708 27.1606 30.9767 27.9105 30.9767Z" fill="white"/>
<path d="M28.0613 30.3752C28.3946 30.3752 28.6648 30.1059 28.6648 29.7737C28.6648 29.4415 28.3946 29.1722 28.0613 29.1722C27.7281 29.1722 27.4579 29.4415 27.4579 29.7737C27.4579 30.1059 27.7281 30.3752 28.0613 30.3752Z" fill="#170F49"/>
<path d="M13.5786 9.13771C13.5786 4.0907 17.6833 -0.000728607 22.7466 -0.000728607C27.8099 -0.000728607 31.9147 4.0907 31.9147 9.13771V9.66532C31.9147 14.7123 27.8099 18.8038 22.7466 18.8038C17.6833 18.8038 13.5786 14.7123 13.5786 9.66532V9.13771Z" fill="#4A3AFF"/>
<path d="M23.0829 11.7286C25.3325 11.7286 27.1562 9.9108 27.1562 7.66845C27.1562 5.42609 25.3325 3.6083 23.0829 3.6083C20.8333 3.6083 19.0096 5.42609 19.0096 7.66845C19.0096 9.9108 20.8333 11.7286 23.0829 11.7286Z" fill="white"/>
<path d="M23.6863 9.92409C24.6028 9.92409 25.3458 9.1835 25.3458 8.26995C25.3458 7.3564 24.6028 6.61581 23.6863 6.61581C22.7698 6.61581 22.0269 7.3564 22.0269 8.26995C22.0269 9.1835 22.7698 9.92409 23.6863 9.92409Z" fill="#170F49"/>
</g>
<defs>
<clipPath id="clip0_30_37">
<rect width="35" height="40" fill="white" transform="translate(0.000976562 -0.000728607)"/>
</clipPath>
</defs>
</svg>
